<svg width="100" height="100" viewBox="0 0 100 100" fill="none" xmlns="http://www.w3.org/2000/svg">
  <circle cx="50" cy="50" r="50" fill="#E5E7EB"/>
  <path d="M50 25C37.85 25 28 34.85 28 47C28 53.3826 30.6857 59.1351 35.3137 63.2426C37.6863 65.3275 40.4684 66.8693 43.5 67.7559V75H56.5V67.7559C59.5316 66.8693 62.3137 65.3275 64.6863 63.2426C69.3143 59.1351 72 53.3826 72 47C72 34.85 62.15 25 50 25Z" fill="#9CA3AF"/>
  <path d="M43.5 75V80H56.5V75H43.5Z" fill="#9CA3AF"/>
  <path d="M40 47.5C42.4853 47.5 44.5 45.4853 44.5 43C44.5 40.5147 42.4853 38.5 40 38.5C37.5147 38.5 35.5 40.5147 35.5 43C35.5 45.4853 37.5147 47.5 40 47.5Z" fill="#E5E7EB"/>
  <path d="M60 47.5C62.4853 47.5 64.5 45.4853 64.5 43C64.5 40.5147 62.4853 38.5 60 38.5C57.5147 38.5 55.5 40.5147 55.5 43C55.5 45.4853 57.5147 47.5 60 47.5Z" fill="#E5E7EB"/>
</svg>
